<svg viewBox="0 0 139 83" fill="none" xmlns="http://www.w3.org/2000/svg">
<g clip-path="url(#clip0_27_233)">
<path d="M35.16 35.09H28.77V10H30.31L32.42 13C33.4448 12.0621 34.6397 11.3289 35.94 10.84C37.2289 10.3086 38.6061 10.0237 40 10H45.64V16.38H40C39.3481 16.373 38.7017 16.4989 38.1 16.75C37.5245 16.9818 36.9984 17.3212 36.55 17.75C35.6449 18.67 35.1383 19.9094 35.14 21.2L35.16 35.09Z" fill="#202125"/>
<path d="M72.43 22.3099C72.4472 24.1089 72.1073 25.8933 71.43 27.5599C70.8094 29.1179 69.8876 30.5382 68.7173 31.7393C67.547 32.9405 66.1513 33.899 64.61 34.5599C63.0257 35.2201 61.3263 35.5599 59.61 35.5599C57.8937 35.5599 56.1943 35.2201 54.61 34.5599C53.0893 33.89 51.706 32.944 50.53 31.7699C49.3571 30.5576 48.427 29.1319 47.79 27.5699C47.108 25.9047 46.768 24.1193 46.79 22.3199C46.7661 20.5075 47.1062 18.7086 47.79 17.0299C48.4106 15.472 49.3324 14.0517 50.5027 12.8506C51.673 11.6494 53.0687 10.6909 54.61 10.0299C56.1902 9.3566 57.8923 9.01619 59.61 9.02994C61.3265 9.02808 63.0262 9.36803 64.61 10.0299C66.141 10.6402 67.5298 11.5593 68.69 12.7299C69.8781 13.9301 70.8102 15.359 71.43 16.9299C72.112 18.6406 72.4517 20.4685 72.43 22.3099Z" fill="#202125"/>
<path d="M66 22.31C66.014 21.3556 65.8407 20.4077 65.49 19.52C65.1871 18.7186 64.7243 17.9871 64.13 17.37C63.5686 16.771 62.8871 16.2974 62.13 15.98C61.3507 15.6547 60.5144 15.4881 59.67 15.49C58.8159 15.4892 57.97 15.6557 57.18 15.98C56.4239 16.2992 55.7427 16.7726 55.18 17.37C54.5985 17.9933 54.1434 18.7234 53.84 19.52C53.5055 20.4117 53.3394 21.3577 53.35 22.31C53.3447 23.2326 53.5109 24.1481 53.84 25.01C54.1505 25.803 54.6048 26.5319 55.18 27.16C55.7507 27.766 56.4289 28.261 57.18 28.62C58.3481 29.1242 59.6412 29.2642 60.8901 29.0215C62.139 28.7789 63.2857 28.1649 64.18 27.26C64.7746 26.6393 65.2373 25.9045 65.54 25.1C65.8719 24.2084 66.0282 23.261 66 22.31Z" fill="#28B3D9"/>
<path d="M82.42 0H75.97V35.09H82.42V0Z" fill="#202125"/>
<path d="M105.76 32.16C105.232 32.6377 104.674 33.0819 104.09 33.49C103.516 33.9017 102.907 34.263 102.27 34.57C101.628 34.8684 100.958 35.1029 100.27 35.27C99.5996 35.4581 98.9063 35.5524 98.21 35.55C96.7172 35.5622 95.2364 35.2837 93.85 34.73C92.5147 34.2017 91.2977 33.413 90.27 32.41C89.2261 31.357 88.4033 30.1057 87.85 28.73C87.2578 27.176 86.9693 25.5228 87 23.86V10H93.38V23.86C93.3668 24.6327 93.4921 25.4015 93.75 26.13C93.9941 26.7489 94.3539 27.3157 94.81 27.8C95.2433 28.2334 95.7606 28.5736 96.33 28.8C96.9363 29.0332 97.5805 29.1519 98.23 29.15C98.8739 29.1511 99.5086 28.9967 100.08 28.7C100.668 28.3981 101.194 27.9875 101.63 27.49C102.056 26.987 102.394 26.4157 102.63 25.8C102.883 25.1635 103.012 24.4848 103.01 23.8V10H109.4V35.09H107.86L105.76 32.16Z" fill="#202125"/>
<path d="M138.57 22.3099C138.587 24.1089 138.247 25.8933 137.57 27.5599C136.949 29.1179 136.028 30.5382 134.857 31.7393C133.687 32.9405 132.291 33.899 130.75 34.5599C129.166 35.2201 127.466 35.5599 125.75 35.5599C124.034 35.5599 122.334 35.2201 120.75 34.5599C119.229 33.89 117.846 32.944 116.67 31.7699C115.497 30.5576 114.567 29.1319 113.93 27.5699C113.253 25.9033 112.913 24.1189 112.93 22.3199C112.911 20.5079 113.251 18.71 113.93 17.0299C114.551 15.472 115.472 14.0517 116.643 12.8506C117.813 11.6494 119.209 10.6909 120.75 10.0299C122.33 9.3566 124.032 9.01619 125.75 9.02994C127.467 9.02728 129.166 9.36725 130.75 10.0299C132.282 10.6382 133.671 11.5575 134.83 12.7299C136.018 13.9301 136.95 15.359 137.57 16.9299C138.252 18.6406 138.592 20.4685 138.57 22.3099Z" fill="#202125"/>
<path d="M132.13 22.3101C132.141 21.355 131.964 20.4071 131.61 19.5201C131.307 18.7186 130.844 17.9871 130.25 17.3701C129.689 16.7711 129.007 16.2974 128.25 15.9801C127.471 15.653 126.635 15.4863 125.79 15.4901C124.939 15.4893 124.097 15.6557 123.31 15.9801C122.553 16.2979 121.872 16.7715 121.31 17.3701C120.728 17.9933 120.273 18.7235 119.97 19.5201C119.636 20.4117 119.469 21.3578 119.48 22.3101C119.475 23.2326 119.641 24.1482 119.97 25.0101C120.281 25.8031 120.735 26.5319 121.31 27.1601C121.88 27.7675 122.558 28.2627 123.31 28.6201C124.092 28.9501 124.931 29.1201 125.78 29.1201C126.628 29.1201 127.468 28.9501 128.25 28.6201C129.001 28.2956 129.68 27.8267 130.25 27.2401C130.845 26.6194 131.307 25.8846 131.61 25.0801C131.96 24.1988 132.136 23.2582 132.13 22.3101Z" fill="#E7E5DE"/>
<path d="M60.64 69.31C60.6651 71.155 60.3253 72.9868 59.64 74.7C59.0128 76.2671 58.0815 77.6945 56.9 78.9C55.7329 80.0597 54.3457 80.9743 52.82 81.59C51.2365 82.2527 49.5366 82.5927 47.82 82.59C46.1027 82.5995 44.4015 82.2593 42.82 81.59C41.2785 80.948 39.881 80.0042 38.7098 78.8141C37.5386 77.624 36.6172 76.2115 36 74.66C35.3181 72.9598 34.9783 71.1417 35 69.31V47H41.42V58.72C41.7755 58.273 42.1931 57.879 42.66 57.55C43.1579 57.2045 43.695 56.9192 44.26 56.7C44.824 56.4845 45.4064 56.3205 46 56.21C46.5982 56.0797 47.2079 56.0094 47.82 56C49.5379 55.9834 51.2406 56.3239 52.82 57C54.3537 57.6372 55.7418 58.5796 56.9 59.77C58.0769 60.9886 59.0043 62.4256 59.63 64C60.318 65.6847 60.6615 67.4903 60.64 69.31Z" fill="#202125"/>
<path d="M54.2 69.31C54.2055 68.3879 54.0288 67.4737 53.68 66.62C53.375 65.8107 52.9128 65.0698 52.32 64.44C51.7551 63.835 51.0752 63.3489 50.32 63.01C49.5478 62.6592 48.7081 62.4817 47.86 62.49C46.9985 62.4894 46.1489 62.6915 45.38 63.08C44.6211 63.4523 43.9418 63.9685 43.38 64.6C42.7889 65.2349 42.3209 65.9741 42 66.78C41.6735 67.5834 41.5071 68.4428 41.51 69.31C41.501 70.2297 41.6673 71.1426 42 72C42.6207 73.5931 43.8311 74.8859 45.38 75.61C46.1623 75.9502 47.0069 76.1239 47.86 76.12C48.7068 76.1255 49.5452 75.9517 50.32 75.61C51.865 74.8869 53.0694 73.5929 53.68 72C54.0273 71.1459 54.204 70.232 54.2 69.31Z" fill="#28B3D9"/>
<path d="M25.64 22.24C25.6651 20.395 25.3252 18.5633 24.64 16.85C24.0102 15.2872 23.0792 13.8636 21.9 12.66C20.7295 11.5073 19.3384 10.6025 17.81 10C16.2264 9.33736 14.5266 8.99738 12.81 9.00005C11.0932 8.99549 9.39295 9.33554 7.80997 10C6.28322 10.6411 4.89704 11.5754 3.72997 12.75C2.55891 13.9428 1.63161 15.3524 0.999971 16.9C0.317115 18.5965 -0.0227654 20.4115 -2.88148e-05 22.24V44.55H6.41997V32.84C6.78163 33.2785 7.19842 33.6684 7.65997 34C8.16047 34.3386 8.69711 34.6203 9.25997 34.84C9.83693 35.0579 10.4328 35.222 11.04 35.33C11.625 35.4559 12.2216 35.5196 12.82 35.52C14.5384 35.5417 16.2421 35.201 17.82 34.52C19.3552 33.8903 20.7442 32.9507 21.9 31.76C23.0754 30.5421 24.0057 29.1094 24.64 27.54C25.322 25.8573 25.6619 24.0556 25.64 22.24Z" fill="#202125"/>
<path d="M19.2 22.24C19.2053 23.1653 19.0286 24.0827 18.68 24.94C18.3727 25.7481 17.9107 26.4886 17.32 27.12C16.7525 27.722 16.0732 28.2077 15.32 28.55C14.5451 28.8916 13.7068 29.0655 12.86 29.06C11.9992 29.0641 11.1496 28.8654 10.38 28.48C9.62272 28.1007 8.94411 27.5816 8.37997 26.95C7.78642 26.317 7.31816 25.5773 6.99997 24.77C6.67273 23.9668 6.50625 23.1072 6.50997 22.24C6.49973 21.3202 6.66607 20.407 6.99997 19.55C7.61255 17.9518 8.8255 16.6563 10.38 15.94C11.1602 15.592 12.0057 15.4148 12.86 15.42C13.7081 15.4117 14.5478 15.5891 15.32 15.94C16.0721 16.2929 16.7507 16.7849 17.32 17.39C17.9081 18.0157 18.3699 18.7491 18.68 19.55C19.0288 20.4036 19.2055 21.3178 19.2 22.24Z" fill="#E7E5DE"/>
<path d="M74.1899 76C74.4355 76.0725 74.6862 76.1259 74.9399 76.16C75.1899 76.16 75.4399 76.16 75.6899 76.16C76.2988 76.1633 76.905 76.0791 77.4899 75.91C78.0587 75.7365 78.6031 75.4912 79.1099 75.18C79.6168 74.853 80.0748 74.4557 80.4699 74C80.8759 73.534 81.2127 73.012 81.4699 72.45L86.1599 77.16C84.9701 78.8322 83.4049 80.2021 81.5899 81.16C80.691 81.6277 79.7369 81.9805 78.7499 82.21C77.769 82.4563 76.7613 82.5806 75.7499 82.58C74.0327 82.5895 72.3314 82.2493 70.7499 81.58C69.2256 80.939 67.84 80.0085 66.6699 78.84C65.4933 77.64 64.5595 76.2241 63.9199 74.67C63.2381 72.9698 62.8982 71.1517 62.9199 69.32C62.8955 67.4621 63.2353 65.6174 63.9199 63.89C64.5251 62.3426 65.4381 60.9341 66.6035 59.7498C67.7689 58.5655 69.1625 57.63 70.6999 57C72.2842 56.3399 73.9836 56 75.6999 56C77.7557 56.0024 79.7803 56.5033 81.5999 57.46C83.4229 58.4183 84.9978 59.7878 86.1999 61.46L74.1899 76Z" fill="#202125"/>
<path d="M77.47 62.75C77.1831 62.6434 76.8842 62.5729 76.58 62.54C76.2835 62.5242 75.9864 62.5242 75.69 62.54C74.8378 62.5286 73.9918 62.6849 73.2 63C72.4493 63.3155 71.7694 63.7779 71.2 64.36C70.6172 64.986 70.162 65.7197 69.86 66.52C69.5201 67.4171 69.3538 68.3707 69.37 69.33C69.37 69.57 69.37 69.83 69.37 70.13C69.37 70.43 69.44 70.73 69.49 71.04C69.54 71.35 69.62 71.63 69.7 71.91C69.771 72.1722 69.8751 72.4242 70.01 72.66L77.47 62.75Z" fill="#E7E5DE"/>
<path d="M95.8199 82.09H89.4199V57H90.9999L93.1099 59.44C95.1944 57.5647 97.896 56.5218 100.7 56.51C102.193 56.5036 103.67 56.8066 105.04 57.4C107.728 58.5509 109.862 60.7028 110.99 63.4C111.589 64.7749 111.892 66.2603 111.88 67.76V82.09H105.48V67.74C105.485 67.1045 105.359 66.4747 105.11 65.89C104.631 64.7252 103.711 63.7975 102.55 63.31C101.966 63.059 101.336 62.933 100.7 62.94C99.7391 62.9305 98.7979 63.2119 98.0001 63.7474C97.2023 64.2828 96.5852 65.0472 96.2299 65.94C95.9778 66.5241 95.8484 67.1538 95.8499 67.79L95.8199 82.09Z" fill="#202125"/>
<path d="M126.41 76C126.655 76.0724 126.906 76.1259 127.16 76.16C127.41 76.16 127.66 76.16 127.91 76.16C128.519 76.1632 129.125 76.0791 129.71 75.91C130.279 75.7365 130.823 75.4911 131.33 75.18C131.837 74.853 132.295 74.4557 132.69 74C133.096 73.534 133.433 73.012 133.69 72.45L138.38 77.16C137.19 78.8321 135.625 80.2021 133.81 81.16C132.919 81.615 131.975 81.9576 131 82.18C130.019 82.4263 129.011 82.5506 128 82.55C126.316 82.5663 124.647 82.2455 123.089 81.6067C121.531 80.9678 120.117 80.0237 118.93 78.83C117.753 77.63 116.82 76.2141 116.18 74.66C115.498 72.9598 115.158 71.1417 115.18 69.31C115.156 67.452 115.495 65.6073 116.18 63.88C116.79 62.3276 117.708 60.9153 118.881 59.7292C120.053 58.543 121.455 57.6076 123 56.98C124.585 56.3221 126.284 55.9823 128 55.98C130.056 55.9823 132.08 56.4833 133.9 57.44C135.723 58.3983 137.298 59.7678 138.5 61.44L126.41 76Z" fill="#202125"/>
<path d="M129.69 62.75C129.403 62.6434 129.104 62.5729 128.8 62.54C128.503 62.5242 128.206 62.5242 127.91 62.54C127.056 62.5381 126.21 62.7046 125.42 63.03C124.668 63.3428 123.987 63.8056 123.42 64.39C122.837 65.016 122.382 65.7497 122.08 66.55C121.74 67.4471 121.574 68.4007 121.59 69.36C121.59 69.6 121.59 69.86 121.59 70.16C121.59 70.46 121.66 70.76 121.71 71.07C121.76 71.38 121.84 71.66 121.92 71.94C121.992 72.2003 122.093 72.4518 122.22 72.69L129.69 62.75Z" fill="#28B3D9"/>
</g>
<defs>
<clipPath id="clip0_27_233">
<rect width="138.57" height="82.55" fill="white"/>
</clipPath>
</defs>
</svg>
